<?xml version="1.0" encoding="UTF-8"?><svg id="a" xmlns="http://www.w3.org/2000/svg" viewBox="0 0 915.9 168.96"><path d="m0,0h43.6v131.76h71.09v35.31H0V0Z"/><path d="m226.66,60.31c8.77,8.45,13.15,21.61,13.15,39.46v67.3h-39.57v-16.35c-2.21,5.69-5.92,10.15-11.14,13.39-5.21,3.24-11.46,4.86-18.72,4.86-8.06,0-15.33-1.62-21.8-4.86-6.48-3.24-11.57-7.74-15.28-13.51-3.71-5.77-5.57-12.28-5.57-19.55,0-8.37,2.17-15.05,6.52-20.02,4.34-4.98,11.26-8.57,20.73-10.78,9.48-2.21,22.28-3.32,38.39-3.32h6.4v-2.84c0-5.84-1.34-9.91-4.03-12.2-2.69-2.29-7.43-3.44-14.22-3.44-5.37,0-11.57,1.07-18.6,3.2-7.03,2.13-13.63,4.86-19.79,8.18l-10.66-27.73c6.79-4.11,15.29-7.54,25.47-10.31,10.19-2.76,19.55-4.15,28.08-4.15,18.32,0,31.87,4.23,40.64,12.68Zm-32.35,74.41c3.63-4.03,5.45-9.2,5.45-15.52v-2.84h-3.79c-10.11,0-17.3.91-21.56,2.73-4.27,1.82-6.4,4.86-6.4,9.12,0,3.64,1.14,6.64,3.44,9.01,2.29,2.37,5.25,3.55,8.89,3.55,5.69,0,10.35-2.01,13.98-6.04Z"/><path d="m373,60.07c6.79,8.29,10.19,20.89,10.19,37.8v69.2h-42.18v-67.3c0-6.95-1.23-12-3.67-15.17-2.45-3.16-6.12-4.74-11.02-4.74-6.32,0-11.34,2.01-15.05,6.04-3.71,4.03-5.57,9.44-5.57,16.23v64.93h-42.18V50.48h41v15.64c4.11-6,9.4-10.58,15.88-13.74,6.48-3.16,13.66-4.74,21.56-4.74,13.9,0,24.25,4.15,31.04,12.44Z"/><path d="m530.35,0v167.07h-41.47v-15.88c-3.32,5.53-8.18,9.87-14.57,13.03-6.4,3.16-13.47,4.74-21.21,4.74-9.95,0-18.84-2.57-26.66-7.7-7.82-5.13-13.94-12.36-18.37-21.68-4.43-9.32-6.64-19.98-6.64-31.99s2.17-22.55,6.52-31.64c4.34-9.08,10.43-16.07,18.25-20.97,7.82-4.89,16.78-7.35,26.9-7.35,7.42,0,14.26,1.5,20.5,4.5,6.24,3,11.1,7.03,14.57,12.09V0h42.18Zm-47.39,129.86c3.95-5.05,5.92-12.32,5.92-21.8s-1.98-16.47-5.92-21.45c-3.95-4.98-9.64-7.46-17.06-7.46s-12.88,2.45-16.83,7.35c-3.95,4.9-5.92,11.93-5.92,21.09s2.01,16.83,6.04,22.04c4.03,5.21,9.6,7.82,16.71,7.82s13.11-2.53,17.06-7.58Z"/><path d="m662.58,116.83h-72.04c1.26,7.58,4.03,13.03,8.29,16.35,4.26,3.32,10.35,4.98,18.25,4.98,5.69,0,11.45-.95,17.3-2.84,5.84-1.9,11.06-4.5,15.64-7.82l10.66,27.72c-5.85,4.27-12.88,7.62-21.09,10.07-8.22,2.45-16.43,3.67-24.64,3.67-13.43,0-25.04-2.45-34.84-7.35-9.8-4.89-17.34-11.93-22.63-21.09-5.3-9.16-7.94-19.91-7.94-32.23,0-11.69,2.49-22.16,7.46-31.4,4.98-9.24,11.93-16.43,20.85-21.56,8.92-5.13,18.99-7.7,30.21-7.7,16.74,0,30.01,5.33,39.81,16,9.79,10.66,14.69,25.24,14.69,43.72v9.48Zm-72.51-19.91h37.2c-.95-13.9-6.95-20.85-18.01-20.85s-17.62,6.95-19.19,20.85Z"/><path d="m771.58,81.99l-22.99,2.37c-9.16.95-15.56,3.4-19.19,7.35-3.64,3.95-5.45,9.56-5.45,16.83v58.53h-42.18V50.48h40.05v20.14c2.68-7.11,7.11-12.52,13.27-16.23,6.16-3.71,13.66-5.81,22.51-6.28l11.61-.95,2.37,34.84Z"/><path d="m870.88,81.99l-22.99,2.37c-9.16.95-15.56,3.4-19.19,7.35-3.64,3.95-5.45,9.56-5.45,16.83v58.53h-42.18V50.48h40.05v20.14c2.68-7.11,7.11-12.52,13.27-16.23,6.16-3.71,13.66-5.81,22.51-6.28l11.61-.95,2.37,34.84Z"/><path d="m915.9,123.94v43.13h-43.84v-43.13h43.84Z" style="fill:#153cff;"/></svg>